<?xml version="1.0" standalone="no"?>
<!DOCTYPE svg PUBLIC "-//W3C//DTD SVG 20010904//EN"
 "http://www.w3.org/TR/2001/REC-SVG-20010904/DTD/svg10.dtd">
<svg version="1.0" xmlns="http://www.w3.org/2000/svg"
 width="898.000000pt" height="792.000000pt" viewBox="0 0 898.000000 792.000000"
 preserveAspectRatio="xMidYMid meet">
<metadata>
Created by potrace 1.15, written by Peter Selinger 2001-2017
</metadata>
<g transform="translate(0.000000,792.000000) scale(0.100000,-0.100000)"
fill="#000000" stroke="none">
<path d="M2377 6874 c-430 -65 -803 -257 -1108 -571 -156 -160 -247 -290 -345
-488 -151 -308 -212 -617 -193 -980 21 -384 180 -786 430 -1090 32 -38 778
-790 1658 -1670 l1601 -1600 1598 1600 c880 880 1626 1634 1660 1676 416 519
540 1205 331 1834 -136 407 -409 760 -776 999 -194 127 -426 222 -663 271
-155 33 -450 45 -607 26 -344 -43 -663 -170 -938 -376 -44 -32 -198 -176 -342
-319 l-263 -260 -262 260 c-145 143 -301 288 -348 323 -233 172 -486 285 -775
347 -103 22 -151 26 -340 29 -160 3 -247 0 -318 -11z"/>
</g>
</svg>
